<svg xmlns="http://www.w3.org/2000/svg" viewBox="0 0 300 86" width="140" height="40"><filter id="b"><feGaussianBlur stdDeviation="10" /></filter><path fill="#22202d" d="M0 0h300v85H0z"/><g filter="url(#b)" transform="translate(.6 .6) scale(1.17188)" fill-opacity=".5"><path fill="azure" d="M9 36h17v37H9z"/><ellipse fill="#d7ffff" rx="1" ry="1" transform="rotate(52 12.7 47.6) scale(10.32796 8.39897)"/><path fill="#af4398" d="M107 63l2-54-81 79z"/><ellipse cx="195" cy="10" rx="94" ry="18"/><ellipse rx="1" ry="1" transform="rotate(-85 149.9 -84.6) scale(24.85112 121.06048)"/><ellipse fill="#21878a" cx="183" cy="34" rx="70" ry="7"/><path fill="#c851b0" d="M33.5 75.5v-39h17v39z"/><path fill="#8dffff" d="M7.7 38.2l18-.4.6 40-18 .4z"/><path fill="#c24eaa" d="M69.9 15.7l33.6 2.3 2.3-5.7L74-9.8z"/></g></svg>