<svg xmlns="http://www.w3.org/2000/svg" viewBox="0 0 300 57" width="232" height="44"><filter id="b"><feGaussianBlur stdDeviation="10" /></filter><path fill="#12171d" d="M0 0h300v56H0z"/><g filter="url(#b)" transform="translate(.6 .6) scale(1.17188)" fill-opacity=".5"><path fill="#3b6fb7" d="M199 18h49v22h-49z"/><path fill="#5094f0" d="M-16 28.7L23-2l26.5 32L38.4 6.8z"/><ellipse cx="170" cy="3" rx="140" ry="15"/><ellipse rx="1" ry="1" transform="rotate(-90.8 88.6 -41) scale(7.44258 138.91097)"/><path fill="#467dc8" d="M21-.2l26.3 14.5-4.4 8L16.7 7.6z"/><path fill="#382e29" d="M56 17h136v22H56z"/><path fill="#5696ee" d="M204 36l-4-19 7-7z"/><path d="M206.6 42.9L26.9 40.2 217.6 63l-9.1-61.8zM242 23h14v12h-14z"/></g></svg>