<svg xmlns="http://www.w3.org/2000/svg" viewBox="0 0 300 200" width="300" height="200"><filter id="b"><feGaussianBlur stdDeviation="10" /></filter><path fill="#0b0602" d="M0 0h300v199H0z"/><g filter="url(#b)" transform="translate(.6 .6) scale(1.17188)" fill-opacity=".5"><ellipse fill="#c05e16" rx="1" ry="1" transform="matrix(56.4071 -.28885 .11241 21.9522 133.2 76.3)"/><ellipse fill="#636262" cx="84" cy="89" rx="229" ry="4"/><path d="M241.2 133.3L138.7 79-16 155l287 30z"/><path fill="#b34d01" d="M87 57h95v13H87z"/><ellipse cx="160" cy="76" rx="8" ry="8"/><path d="M114.9 82.6l-15 .8-.8-14 15-.8z"/><ellipse rx="1" ry="1" transform="matrix(122.33937 69.14823 -12.06105 21.3388 196.3 42.6)"/><ellipse cx="92" cy="21" rx="255" ry="35"/><ellipse fill="#c2b8b2" cx="73" cy="87" rx="48" ry="1"/></g></svg>